<svg id="Layer_1" data-name="Layer 1" xmlns="http://www.w3.org/2000/svg" viewBox="0 0 3397.54 3237.95"><defs><style>.cls-1{fill:#dc1d3c;}.cls-1,.cls-2{fill-rule:evenodd;}.cls-2{fill:none;stroke:#000;}.cls-3{font-size:241.71px;font-family:ArchivoBlack-Regular, Archivo Black;}.cls-3,.cls-4,.cls-5{fill:#353d49;}.cls-4{font-size:137.01px;stroke:#353d49;stroke-miterlimit:10;stroke-width:4px;font-family:AdobeFanHeitiStd-Bold, AdobeFanHeitiStd Bold-B5pc-H;font-weight:700;}</style></defs><title>LOGO-svg</title><path class="cls-1" d="M3481.84,406.47c-12.77-4.21-28.49-7-49.08-8.57-6.16-.49-30.27-.46-38.44,0-55.83,3.32-116.8,20.19-180,49.88-36,16.91-77.45,41-114.75,66.61-52.07,35.81-103.41,78-156.71,128.88-16,15.28-47.67,47.21-63.94,64.49-39.22,41.71-77.36,85.85-115.67,133.77-5.81,7.26-10.69,13.34-10.8,13.45s-5.27-5.43-20.2-22.74c-20.94-24.28-30.29-34.69-42-46.63-3.74-3.83-11.13-11.47-16.41-17-14-14.67-17.9-18.56-31.23-31.46-6.62-6.41-15.58-15.13-19.9-19.37-11.45-11.24-23.74-22.43-46.92-42.7-6.48-5.67-14-12.26-16.69-14.67s-6.77-5.91-9-7.73c-3.35-2.76-32.86-26.32-52-41.52-2.56-2-8.1-6.18-12.34-9.21s-12-8.59-17.29-12.42-11.21-8.11-13.22-9.53l-5.07-3.7c-8.49-6.27-18.87-13.5-31.67-22.07l-30.22-20.18c-12.19-8.17-18.85-12.36-37.75-23.71-35.24-21.15-37.59-22.49-64.64-36.72-6-3.17-12.66-6.68-14.82-7.84-20.38-11-17.83-9.71-57.66-28.18-7.66-3.54-17.6-8.16-22.07-10.26s-13.83-6.07-20.77-8.88-17.14-6.91-22.66-9.18c-23.58-9.7-41.3-16.44-58.38-22.23-4.39-1.47-12-4.12-17-5.89-32.63-11.56-72.92-23.53-112-33.32a1523.18,1523.18,0,0,0-215.84-37.18c-39.21-3.84-74.27-6-113.43-7.12-10.89-.29-41-.55-48.22-.4-42.82.87-70.3,2.32-113.43,5.92-34.8,2.93-74.31,7.87-111.69,14-45.67,7.43-82.19,15-125.64,25.84-34.69,8.69-72.63,20-104,31-5.66,2-14.81,5.14-20.33,7-21.23,7.23-32.74,11.65-66.09,25.28-7.5,3.07-16.68,6.79-20.36,8.27s-11.16,4.77-16.56,7.29-12.58,5.85-16,7.38c-43,19.93-40.35,18.66-55.94,26.88-5.67,3-11.8,6.21-13.63,7.2-3.31,1.71-10.08,5.31-23.68,12.55-10.95,5.84-19.78,10.88-35.43,20.33-8,4.82-19.61,11.83-25.86,15.57-6.77,4-16.93,10.55-25.27,16.12-33.35,22.28-51.45,34.57-59.84,40.67-4.94,3.6-10.51,7.61-12.34,8.95s-8.11,5.86-13.95,10.11-12.75,9.24-15.39,11.12-6.63,4.89-8.86,6.66l-23.39,18.61c-31,24.66-28.67,22.75-62.74,52.7C593.8,699.25,583.4,708.83,571,721c-9.28,9.15-23.77,23.16-26.12,25.3-1.34,1.2-12.11,12.35-27.52,28.44-3.56,3.75-9.17,9.56-12.45,12.93-10.05,10.31-20.51,22-40.67,45.32-5.67,6.53-12.84,14.83-16,18.44s-6.85,8-8.28,9.88-7.63,9.7-13.83,17.46c-24.25,30.52-33,41.89-40.64,53-1.64,2.38-8.3,11.73-14.78,20.77-17.49,24.37-48.83,71.51-65,97.8-64.63,105.08-115,214.62-150.16,326.6-2.78,8.83-11.32,37.39-14.05,46.92-29.75,104.11-47.5,217-52.47,334-1,23.36-1.16,31.92-1.16,56.5,0,27.86.5,45.35,2,73.93,6,110.27,23.26,216.38,51.27,314.6,19.89,69.8,39.45,125,65.36,184.75,30.76,70.82,64.77,135.19,107.71,203.66,8.63,13.8,42.24,64.2,50.31,75.49,13.07,18.28,19.06,26.7,21.79,30.65,6.56,9.53,19,25.79,36,47.06,5.7,7.12,12.29,15.4,14.65,18.45,5.69,7.26,5.55,7.09,18.33,21.82,35.32,40.69,35.9,41.36,57.23,63.5,5.46,5.63,12.75,13.24,16.26,16.93,8.51,8.91,14.88,15.25,30.73,30.67,31.67,30.74,31.75,30.82,70.65,64.87,13.77,12.08,17.05,14.84,30.5,25.59,27.46,22,43.23,34.36,48.19,37.91,3,2.15,8.8,6.33,12.93,9.32s11.24,8.11,15.86,11.45c13.63,9.79,15.51,11.15,19,13.8,1.84,1.39,9.88,6.85,17.88,12.2s20.27,13.53,27.3,18.27l16.56,11.13c3.86,2.55,41.45,25.33,54.76,33.14,11,6.45,29,16.18,56.64,30.62,2,1.05,6.65,3.51,10.32,5.49,6.21,3.31,17.86,8.86,44.58,21.18,6,2.76,15,6.94,20,9.29s11,5,13.22,5.87,11.58,4.68,20.76,8.43c36.54,14.92,48.75,19.6,67.54,25.94,4.15,1.42,11.88,4.09,17.14,5.95,22.4,7.92,47.29,15.8,72.33,22.92,102.86,29.17,218.38,47.89,330.28,53.59,29.83,1.55,43.64,1.89,71.32,1.89,22.57,0,34-.2,54-1a1579.29,1579.29,0,0,0,182.71-18c65.65-10.57,122.48-23.26,180.69-40.4,19.46-5.72,39.53-12.2,58.09-18.74,5.2-1.83,13.89-4.86,19.32-6.68,15.4-5.2,31.84-11.47,53.89-20.51l23.67-9.64c12.43-5,18.8-7.9,58-26.06,22.28-10.34,18.67-8.54,51.41-25.8,28.5-15,41.6-22.25,53.74-29.68,6.28-3.84,10.69-6.51,30.8-18.62,6.78-4.1,14.72-9,17.65-11s16.51-11.06,30.22-20.24,25.81-17.4,26.93-18.24,3.91-2.88,6.24-4.57l33.46-24.1c14.38-10.35,18.59-13.6,42.5-32.66,29.86-23.82,31.61-25.27,46.65-38.52,6-5.25,13.34-11.7,16.36-14.37,16.84-14.79,27.79-24.81,37.21-34,3.83-3.78,13-12.74,20.48-20,15.34-14.86,17.43-17,31.84-32,5.72-6,12.9-13.44,16-16.55,13.79-14.09,19.89-20.89,49.66-55.34,4.13-4.79,9.3-10.75,11.48-13.22s6.13-7.26,8.74-10.6,9.15-11.59,14.5-18.3c19.93-25.07,27.83-35.35,35.29-45.9,5.87-8.33,15.66-22.07,24.37-34.27,7.91-11.08,40.32-59.67,48.83-73.21,67.54-107.53,118.49-215.42,155.56-329.41,4.8-14.75,13.71-44.3,18.71-61.9q44.31-156.74,51.73-333.31c.91-22,1.13-32.59,1.13-53.74,0-24.43-.54-44.74-2-72.48-5.78-109.85-23-216.5-50.87-314.88-2.7-9.47-10.54-35.88-13.8-46.33-37.24-119.74-91.62-236.23-162.59-348.3-2.49-3.92-12.2-18.65-21.61-32.76l-17.08-25.62,6.27-9.67c7.12-10.93,24.26-36.55,32.31-48.29,69.63-101.52,137.34-186.44,207.61-260.28,13.18-13.85,37.53-38.14,51-50.86,64.66-61.15,127.32-108.43,189.28-142.89,56.16-31.26,113.14-51.1,154.52-53.83l3.19-.22Zm-721.28,698.39c11.62-19.73,19.06-32.28,19.56-32.91.29-.38.38-.29,8.13,12.29,16.07,26,33.23,56.15,47.7,83.65,4.9,9.39,27.39,54.36,32.65,65.37a1328.09,1328.09,0,0,1,62.81,154.68c7.77,23.35,16.81,53.07,23.46,77.32,25.4,92.38,40.58,191.09,45.21,293.63,2.09,46.65,1.82,81-1,129.85-5.81,99.46-21.9,196.45-47.35,285.4-17.92,62.66-35.53,112.66-58.53,166.45-9.1,21.26-24.67,55.92-33.44,74.37-4.47,9.47-18.15,36.83-23.21,46.47a1398.66,1398.66,0,0,1-245.46,335.34c-48.19,48.65-95,89.59-151.49,132.52a1446,1446,0,0,1-126.65,85.23c-4.25,2.5-15.28,9.12-24.55,14.67-22.6,13.54-27.86,16.44-59.4,33-23.19,12.2-28.38,14.87-32.54,16.79-2.15,1-15.16,7-28.9,13.36-17.32,8-28.33,12.93-35.88,16l-25.7,10.43c-20.4,8.3-39.78,15.65-49.82,18.91-1.37.43-6.45,2.2-11.33,3.91A1223.76,1223.76,0,0,1,1889.63,3185c-80.84,17.22-162.91,27.18-249.62,30.35-58.47,2.12-124.9-.58-191.69-7.85-82.91-9-165.14-25.38-240.26-47.77-17-5.09-39.59-12.44-53.3-17.35-3.11-1.1-9.07-3.16-13.22-4.59-14.61-5-29.4-10.54-48.08-18.16l-23.82-9.64c-6.94-2.79-17.28-7.23-23-9.82-33.66-15.48-51.5-23.85-57.66-27.07-3.83-2-9.64-5.08-12.92-6.77-7-3.64-25-13.15-31-16.38-11-5.87-19.82-11-42.62-24.66-22.22-13.34-26.7-16.12-44.88-28.24-11.1-7.38-25-16.61-30.94-20.57a1401.29,1401.29,0,0,1-432.74-459.46c-9-15.45-27-47.87-38.34-69.14-16.51-30.9-34.37-67.79-47.59-98.18-25-57.69-44-110.91-62.44-175.57-27.22-95.33-43.44-197.5-48.37-304.6a1083.63,1083.63,0,0,1,0-111.11c4.15-91.53,16.9-181.13,37.64-264.34a1465.2,1465.2,0,0,1,47.12-151.64c31.35-83.49,72.39-166.33,122-246.19l7.93-12.79A1396.21,1396.21,0,0,1,566.35,878.13c19.28-21.29,49.4-52.23,69.92-71.77C666,778,699,749.13,729,725.29l24.89-19.85c12.29-9.82,14.5-11.47,31.06-23.52,6.8-4.92,14.17-10.35,16.41-12.07,9.21-7,19.55-14.22,37.5-26.23,6.71-4.47,17.95-12,25-16.76,12.56-8.51,15.92-10.57,50.26-31.14C932,585,936.87,582.3,964.2,568c4.7-2.46,12.64-6.68,17.57-9.32,11.53-6.16,13.54-7.12,46-22.14,22.06-10.19,29.93-13.68,41.83-18.5,8.08-3.29,17.61-7.17,21.21-8.66,10.89-4.5,30.42-12.14,37.18-14.52,15.17-5.41,55.51-19,66-22.32,94.43-29.53,201.51-49.26,308.92-56.95,24.44-1.77,45.94-2.79,73.79-3.5,7.23-.17,51.74.13,59.26.39,20.3.78,24.34.92,31.66,1.36,17.23,1,44.22,3,60,4.48,110.27,10.45,219,33.55,311.4,66.13,5.2,1.84,10.89,3.78,12.64,4.36,15.21,4.91,36,12.82,64.28,24.47,5.49,2.26,13.28,5.43,17.29,7,6.27,2.51,43.94,19.67,65.06,29.63,3.66,1.72,12.4,6.19,19.46,9.94s18.53,9.85,25.51,13.51c17.75,9.38,25.47,13.74,43,24.23,8.39,5,19.37,11.59,24.39,14.6,8.75,5.24,40.46,26.18,54.3,35.87,3.27,2.27,11.56,8,18.44,12.74a1409.11,1409.11,0,0,1,125.2,95.88c26.26,22.54,47.24,42,73.05,67.57,32.48,32.22,60.66,62.8,87.65,95.13,6.68,8,16.47,19.9,17.63,21.42.17.25-1.11,2.26-4.21,6.53-25.82,35.56-49,68.9-75.73,109s-45.4,69.1-73.72,114.59c-59.67,95.81-119.4,178-177,243.72-22.55,25.68-35.06,39-59.52,63.16-34.4,34-75,67.44-109.23,89.87a471.75,471.75,0,0,1-55.33,31.89c-36.69,18-71.09,28.91-106.61,33.67a281.21,281.21,0,0,1-47.64,2.18,253.64,253.64,0,0,1-96.93-24.43c-34.57-16.27-67-40.87-96.22-73-33.08-36.42-51.18-79-53.62-126.13-2.2-42.67,10.09-87.11,34.11-123.46,17.48-26.4,38.42-46.53,65-62.42a213.91,213.91,0,0,1,34.51-16c4.7-1.63,15.71-4.71,20.82-5.81a182.54,182.54,0,0,1,41.4-4.36,192,192,0,0,1,32,2.32,44.56,44.56,0,0,0,5.35.61c.17-.2-.85-3.39-3.61-10.92-11.59-31.9-26.26-58.22-44.71-80.23a214.69,214.69,0,0,0-28.25-27.22c-40.29-31.28-92.79-43.57-155.44-36.34-38.41,4.42-78.3,15.4-124.48,34.25-14,5.72-29.13,12.6-46.77,21.35l-10.74,5.31-5.81,1.08c-38.67,7.11-91.53,19.29-129.57,29.8-99.89,27.69-187.62,62.42-267.71,106-49.24,26.81-95.21,57.22-135.63,89.71-49.82,40-92.95,84.76-124.33,128.85-3.74,5.26-10.74,15.72-14,20.92-4.58,7.35-12.75,22.13-10.92,19.78a571.88,571.88,0,0,1,41.49-48.08c55.16-57.8,123.39-110.65,194.62-150.7a846.74,846.74,0,0,1,111.7-53c13.36-5.14,17.05-6.5,28.17-10.36a882.17,882.17,0,0,1,94.82-27c8.07-1.84,29.05-6,29.45-5.88.14,0-.35.32-1.13.62-1.34.52-8.29,3.23-29.17,11.45-22.45,8.83-50.2,20.3-65.5,27.07-7,3-13.51,6.18-13.51,6.39s.49.35,1.1.52,3.64,1,6.74,1.92a258.65,258.65,0,0,0,42.41,8.43c6.19.69,16.25,1.29,25.86,1.5l8.83.21-9.71,2c-10.57,2.13-10.86,2.18-20,4.47-53.14,13.25-92,36.17-121.81,71.9q-30.06,36-48,89.61c-2.31,7-5.39,17-5.22,17.2.11,0,6.88-7.31,15.13-16.24s23-25,32.76-35.58l17.7-19.23,2.24,1.74c17.33,13.68,41,23.12,65.67,26.11a182.54,182.54,0,0,0,26.88.62c19.71-1.4,41.39-7.07,61.29-16,37.82-17.08,75.7-46.68,114-89.07,1.57-1.75,2.88-3.16,2.93-3.16s-1,1.66-2.14,3.58c-13.31,21.43-32,57.43-47.15,90.71-38.23,84.16-66.78,177.06-82.12,267.26a960.31,960.31,0,0,0-14.12,164.41,885.49,885.49,0,0,0,12.64,152.06c1.71,10.15,3.23,18.28,3.31,17.84.24-1.42,4.68-23,6.56-31.78a2105.8,2105.8,0,0,1,96.3-321.42c4.77-12.22,12-30.32,17.4-43.28,5.6-13.4,15.75-37.1,15.92-37.1a39,39,0,0,1-.93,4.15c-6.88,27.69-7.84,66.21-2.59,104,4.86,34.91,15.17,71.65,30.08,107.41a583,583,0,0,0,44.64,85.46c3.69,5.87,18.71,28.45,19.84,29.77l.61.74-.17-.74c-.41-2-8-43.94-10-55.47-17.54-99.76-27.53-173.72-29.1-215-.17-4.79-.24-9.33-.12-10.06l.17-1.33,1.84,3.92c2.44,5.2,5.63,11.3,9.61,18.21,17.25,30.15,40.7,61.79,69,93.11,13.74,15.21,32.77,34.3,49.09,49.26,7,6.4,22.46,19.79,31.34,27.13l2.47,2-2.93-4.35c-16.59-24.78-35.76-63-51.36-102.4a970.3,970.3,0,0,1-35.26-107.62c-3.31-12.44-3.52-13.25-3.11-13,.18.11,3.51,2.76,7.44,5.86,51.5,41,95.92,72.48,138.12,97.78,69.28,41.54,131,64.84,188.82,71.29,26.76,3,54.26,2.44,78.63-1.58,33.7-5.57,62.4-15.33,94.65-32.21,28.7-15,62-36.83,97.89-64,69.42-52.67,156-132.64,235.15-217.11,4.59-4.91,8.39-8.92,8.45-8.92a2.5,2.5,0,0,1-.44.93c-.29.53-1.62,2.85-2.92,5.17-13.37,23.44-32.2,52.38-51.54,79.16A1087.43,1087.43,0,0,1,2261.51,1670c-58.18,54.84-120.64,100.37-185.33,135.16-14.23,7.65-36.83,18.77-49.82,24.49a690.64,690.64,0,0,1-66.38,25.59,667.68,667.68,0,0,1-175.89,33.17c-22.22,1.2-54.08,1.2-73.49,0-2.23-.14-4.1-.22-4.15-.17s1.62.77,3.63,1.59c59.93,24.87,113.55,42.91,167.84,56.48,27.95,7,63.45,13.71,87.44,16.58,23.07,2.76,38.43,3.75,55.28,3.58,5.46,0,9.93,0,9.93,0,0,.32-10,5.81-16.47,9.06-39.5,19.73-89.09,33.73-136.47,38.49a429.69,429.69,0,0,1-112.42-3.45c-50-8.19-100.77-25.59-147.86-50.6l-6.82-3.64-2.18-1.16,9.16,9.12c67.93,67.45,139.75,117.42,205.66,143.16,15.37,6,34.22,11.65,43.77,13.12,1.37.21,2.23.47,2,.59-.62.32-7.85,1.31-14.3,1.94-28.64,2.82-60.53,1.28-91.5-4.47a356.86,356.86,0,0,1-80.11-25,372.28,372.28,0,0,1-91.71-58.5,452.65,452.65,0,0,1-75.39-84l-1.45-2.06-.17,1.36c-.12.76-.38,5.64-.55,10.84-.38,9.7-.11,25.62.58,36.57,4.3,65.89,21.46,124.85,50.92,174.72a295.11,295.11,0,0,0,64.29,76c32.18,26.81,67.86,46,111.08,59.75,25.39,8.08,49.38,13.2,81.48,17.35,6.45.81,20.8,2.17,28.15,2.61,4,.26,8.34.55,9.61.66l2.33.21-4.94.78c-11.48,1.87-28.47,4.13-39.8,5.3-43.63,4.52-88.19,4.23-126.24-.85-33.61-4.5-65.63-12.75-94.33-24.29a327.48,327.48,0,0,1-93.59-57c-4.32-3.8-16.85-15.63-18.48-17.46-.61-.72-2.9-3.19-5.08-5.49a324.66,324.66,0,0,1-38.78-51.18,307.35,307.35,0,0,1-23-46.33c-.92-2.4-1.73-4.3-1.77-4.3s1.31,4.73,2.94,10.25,2.84,10.14,2.79,10.2c-.27,0-4.49-14.26-7.47-25.16l-.58-2.17.15,10.89a314.77,314.77,0,0,0,3.51,46,354.4,354.4,0,0,0,46.68,131.73c1.82,3.05,3.31,5.59,3.31,5.73-.18,0-11-9.55-15.08-13.25a573.82,573.82,0,0,1-41.77-43.72q-63.48-74.33-112.56-182.74c-20.74-45.73-39.85-97.4-55.75-150.59-15.21-51-28.64-108-35.87-152.18-.64-3.9-1.21-7.12-1.28-7.19s-.17,0-3.92,12.53c-35.58,118.25-47.46,249.29-34.88,385a1193.67,1193.67,0,0,0,43.42,226.55c1.69,5.66,3,10.31,2.94,10.37s-5-6-9.56-12.08c-56.21-75.56-95.6-191.73-116.69-344.09-8.86-63.91-14.15-132.08-16-206.24-.7-26.81-.44-83.46.46-99.64l.15-2.61-1.17,3.48c-4.39,13.19-10.28,34.08-15.51,54.9a1278.89,1278.89,0,0,0-37.07,252.87c-1.21,28.44-1.21,66.47,0,93.69,2.86,62.71,11.4,122.29,25.45,177,2.15,8.34,4.56,17.2,6.11,22.42a32.23,32.23,0,0,1,.92,3.6c-.28.29-7.43-13-12.2-22.54-34.48-69.74-60.33-159.19-72.12-249.52-3.55-27.28-6-55.75-7.27-83.37a1041.58,1041.58,0,0,1,5.4-158.75q12.21-110.48,47.06-221.8c2.62-8.33,9.76-30,11.92-36.13a38.42,38.42,0,0,0,1.33-4.16c-.35-.31-14,20.31-21.27,32-43.48,70.38-79.47,148.35-103.67,224.6-21.61,68.09-33.87,133.89-37.07,198.49-.89,18.34-.89,45,0,62,.18,3.16.27,5.81.21,5.86s-3.93-11.8-5.41-17.34c-5.89-22.22-11-52.5-13.5-79.86a596.44,596.44,0,0,1-2.62-60.85c0-18.53.2-26.58,1.16-42.56,6.48-111,37.48-227.68,91.56-344.81,16.36-35.47,34.61-70.53,55-105.82,3-5.2,5.41-9.5,5.41-9.64-.26-.27-9.47,8.22-17.63,16.26a517.1,517.1,0,0,0-48,54.44c-36.43,46.88-67.65,100.3-92.63,158.49a804.74,804.74,0,0,0-40.3,120,894.58,894.58,0,0,0-25.3,175c-1.36,29.29-1.3,63.88.14,94.71q7.2,149.92,57.24,312.56c4.93,16,15.21,47.35,15.53,47.35a14.58,14.58,0,0,0,.67-2.85c14.06-77.24,35-179.78,50.72-248.42,5.55-24.23,15.05-63.77,15.65-65.22.15-.32.32,3.14.45,8.43,2.35,108.55,34.65,232.92,93,358.17A1274.35,1274.35,0,0,0,1085.13,2608c6.18,9.59,20.06,30.15,20.38,30.15,0-.05-1.1-9.18-2.49-20.27-14.81-116.83-25.25-231.2-28.87-316.49-1.07-25.3-1.84-63.21-1.46-73.89l.21-6.28,3.57,10.46c26.46,77.9,64.81,155.56,118.58,240.23,18,28.44,35,53.59,66.17,98.18,11.79,16.88,21.52,30.88,23,33.06a9.31,9.31,0,0,0,1.19,1.57c.05-.06-.73-3.17-1.74-6.91-8.89-32.51-18-71.43-23.42-100.05-6.39-33.81-10.19-65-9.81-81l.08-4.07,2.3,3.78c11,18.07,29.1,43,47.37,65.35,45.38,55.55,101.79,109.63,163.17,156.52,67.11,51.27,138.33,93.86,218.68,130.78,8.13,3.75,9.55,4.35,9.15,4-.14-.14-4.15-2.79-8.86-5.84a913.71,913.71,0,0,1-124.79-97.34c-8.19-7.67-28-27.34-34.6-34.46-32.39-34.67-59.29-69.34-82.41-106.1-45.46-72.31-74.4-152.43-81.51-225.71-1-11-1.83-28.51-1.25-28.85a26.29,26.29,0,0,1,3.57,4.52c4.41,6.31,8.43,11.83,14.21,19.53,68,90.6,149.71,158.2,244.27,202.06A575.49,575.49,0,0,0,1777.42,2548c14.26,2.06,29.21,3.57,45.46,4.59,8.19.52,36.14.52,36.65,0,.27-.29.24-.38-.22-.38-.74,0-17.7-4.22-25.4-6.28-62.43-16.87-120.29-42.84-172.25-77.24q-59.75-39.55-110.54-95.86a639.17,639.17,0,0,1-40.49-50.39l-3-4.19,1.91,1.72c1,1,4.1,3.77,6.8,6.24,38.67,35.47,83.58,59.61,133.57,71.75q93.42,22.7,210.17-10.05c35.4-9.93,74.86-24.89,113.43-43,8.74-4.1,32.94-16.24,42-21.06a1191.1,1191.1,0,0,0,171.1-111.81c12-9.47,27.07-21.79,26.86-22a23.79,23.79,0,0,0-2.49.85c-37.91,13.9-89.67,28.52-138.25,39-67.71,14.58-131.3,22.75-196.65,25.21-14.85.58-57,.46-69.87-.18-5.57-.26-10.17-.51-10.22-.54s3.3-1.12,7.41-2.33c24-7.17,51.32-16.38,74.56-25.13,145.69-54.78,283.29-140.27,411.33-255.51,57.78-52,116.28-113.23,168.66-176.5A1951.94,1951.94,0,0,0,2673,1475.17c11.94-22.22,30.09-58.33,37.18-73.92,5.09-11.19,6.83-15.17,6.77-15.26s-2,2.72-4.27,6.1c-37.88,56-74,102.67-116,150.06-7.17,8.11-23.56,25.95-29.34,32-23.93,24.9-41.15,41.74-64.51,63.21-7,6.4-8.92,8.17-20.19,18-27.05,23.73-59.05,49.21-88.31,70.3a1146.62,1146.62,0,0,1-145.39,89.53,1030.49,1030.49,0,0,1-118.66,52c-9.9,3.61-32.94,11.33-33.64,11.33,0,0,2.28-1.11,5.17-2.38a475,475,0,0,0,50.52-26.87c76.16-46.57,162.06-124.85,252.63-230.3,54.21-63.09,111.24-137.51,168.23-219.46C2634.94,1310.61,2695.64,1215.16,2760.56,1104.86ZM1607.63,1276.28c-22.29,22.57-44.13,50.74-66.68,86-30,46.86-58.37,103.06-83.21,164.91-2,4.88-3.62,8.86-3.67,8.86s3-13.77,5.38-23.3c18.64-75.64,48.22-150,88.22-222a904.28,904.28,0,0,1,88.69-131.7c7.87-9.62,16.61-19.78,20.91-24.2,1-1.07,1.77-1.95,1.63-1.95s-29.31,7.58-64.78,16.85-64.32,16.73-64.55,16.73c-.26-.26,11.53-9.49,19-14.81,39.35-28.18,84-48.54,126.93-58a255.44,255.44,0,0,1,65.65-5.84,222.73,222.73,0,0,1,39,5.09c32.91,7.29,63.64,21.61,93.36,43.55,5.23,3.83,16.3,12.72,16.5,13.21a45.63,45.63,0,0,1-5.23.08c-23.76-.43-54.87,5.38-82.88,15.49-28.78,10.4-55.21,24.75-81.36,44.18-24.11,17.9-49.71,43-70.12,68.67-31.35,39.54-57.37,85.26-79.72,140.07-1.21,3-2.35,5.81-2.49,6.23s-.38.72-.43.63c-.24-.23,5-20,9-34.51a1064.6,1064.6,0,0,1,42.64-121.85c1.19-2.86,2.15-5.27,2.09-5.32C1621.19,1263.11,1613.9,1269.91,1607.63,1276.28Zm-143.79-42.19c0,.24-3.4,2.59-6.83,4.77a107.36,107.36,0,0,1-27.68,12.44c-2.45.69-4.6,1.27-4.79,1.24a41.16,41.16,0,0,1,4.58-2c2.73-1.08,7-2.85,9.53-3.92,4.79-2.1,19.55-9.41,23-11.44C1463.81,1233.92,1463.84,1233.9,1463.84,1234.09Z" transform="translate(-87.94 -86.77)"/><path class="cls-1" d="M2774.53,1459.54" transform="translate(-87.94 -86.77)"/><text x="-87.94" y="-86.77"/><path class="cls-2" d="M197.17,1869.57" transform="translate(-87.94 -86.77)"/><text class="cls-3" transform="matrix(0.84, -0.63, 0.6, 0.8, 758.93, 981.57)">E</text><text class="cls-3" transform="translate(922.24 860.84) rotate(-26.76) scale(1.05 1)">C</text><text class="cls-3" transform="translate(1116.33 764.26) rotate(-15.86) scale(1.05 1)">O</text><text class="cls-3" transform="translate(1337.84 701.83) rotate(-3.76) scale(1.05 1)">M</text><text class="cls-3" transform="translate(1595.61 689.62) rotate(7.83) scale(1.05 1)">E</text><text class="cls-3" transform="matrix(0.99, 0.33, -0.32, 0.95, 1796.22, 718.35)">A</text><text class="cls-3" transform="translate(2000.55 789.85) rotate(29.74) scale(1.05 1)">S</text><text class="cls-3" transform="translate(2175.36 891.83) rotate(40.8) scale(1.05 1)">T</text><text class="cls-3" transform="matrix(0.68, 0.79, -0.76, 0.65, 2326.05, 1028.84)"> </text><text class="cls-3" transform="translate(2394.89 1110.95) rotate(55.32) scale(1.05 1)"> </text><text class="cls-3" transform="matrix(0.5, 0.92, -0.88, 0.48, 2454.91, 1199.79)"> </text><text class="cls-3" transform="translate(2505.52 1294.26) rotate(67.11) scale(1.05 1)"> </text><text class="cls-3" transform="translate(2546.11 1393.46) rotate(73.07) scale(1.05 1)"> </text><text class="cls-3" transform="translate(2576.17 1496.29) rotate(79.01) scale(1.05 1)"> </text><text class="cls-3" transform="matrix(0.09, 1.04, -1, 0.09, 2595.44, 1601.75)"> </text><text class="cls-3" transform="matrix(-0.01, 1.05, -1, -0.01, 2603.8, 1708.69)"> </text><text class="cls-3" transform="translate(2601.31 1815.98) rotate(96.42) scale(1.05 1)"> </text><text class="cls-3" transform="translate(2588.16 1922.57) rotate(102.05) scale(1.05 1)"> </text><text class="cls-3" transform="translate(2564.63 2027.37) rotate(107.6) scale(1.05 1)"> </text><text class="cls-3" transform="matrix(-0.41, 0.96, -0.92, -0.39, 2531.07, 2129.48)"> </text><text class="cls-3" transform="translate(2487.9 2227.96) rotate(118.51) scale(1.05 1)"> </text><text class="cls-3" transform="matrix(-0.58, 0.87, -0.83, -0.56, 2435.59, 2321.95)"> </text><text class="cls-3" transform="matrix(-0.66, 0.81, -0.77, -0.63, 2374.69, 2410.62)"> </text><text class="cls-3" transform="matrix(-0.73, 0.75, -0.71, -0.7, 2305.78, 2493.21)"> </text><text class="cls-3" transform="translate(2229.45 2569.11) rotate(139.87) scale(1.05 1)"> </text><text class="cls-4" transform="matrix(0.71, 0.69, -0.7, 0.72, 652.27, 2545.42)">C</text><text class="cls-4" transform="matrix(0.78, 0.61, -0.62, 0.79, 736.07, 2623.55)">A</text><text class="cls-4" transform="translate(827.57 2692.28) rotate(32.17) scale(0.99 1)">S</text><text class="cls-4" transform="matrix(0.89, 0.44, -0.45, 0.9, 925.45, 2751.06)">H</text><text class="cls-4" transform="translate(1028.32 2799.78) rotate(21.11) scale(0.99 1)"> </text><text class="cls-4" transform="matrix(0.95, 0.28, -0.28, 0.96, 1134.81, 2838.72)">O</text><text class="cls-4" transform="matrix(0.97, 0.2, -0.2, 0.98, 1243.78, 2868.48)">N</text><text class="cls-4" transform="translate(1354.24 2889.81) rotate(7.75) scale(0.99 1)"> </text><text class="cls-4" transform="translate(1465.51 2903.5) rotate(4.18) scale(0.99 1)">D</text><text class="cls-4" transform="matrix(0.99, -0.06, 0.06, 1, 1580.85, 2911.31)">E</text><text class="cls-4" transform="translate(1696.95 2900.85) rotate(-11.35) scale(0.99 1)">L</text><text class="cls-4" transform="matrix(0.94, -0.31, 0.31, 0.95, 1809.25, 2875.41)">I</text><text class="cls-4" transform="translate(1917.57 2837.33) rotate(-24.42) scale(0.99 1)">V</text><text class="cls-4" transform="matrix(0.85, -0.5, 0.51, 0.86, 2020.9, 2787.59)">E</text><text class="cls-4" transform="translate(2118.12 2727.15) rotate(-36.64) scale(0.99 1)">R</text><text class="cls-4" transform="translate(2208.32 2657.13) rotate(-42.37) scale(0.99 1)">Y</text><circle class="cls-5" cx="326.17" cy="1750.53" r="46.31"/><circle class="cls-5" cx="2695.14" cy="1750.53" r="46.31"/></svg>